<svg width="144" height="24" viewBox="0 0 144 24" fill="none" xmlns="http://www.w3.org/2000/svg">
<g clip-path="url(#clip0_3912_179)">
<path d="M5.93941 18.414C8.57388 18.414 10.594 19.5737 10.5941 21.0827C10.5941 22.6438 8.59615 23.8335 5.93941 23.8335C3.28264 23.8335 1.33617 22.6439 1.33617 21.0827C1.3363 19.5217 3.30493 18.414 5.93941 18.414ZM45.7541 8.50472C49.2472 8.50472 50.9418 10.4448 50.9418 13.5968C50.9418 16.7489 49.2472 18.689 45.7541 18.689C42.2609 18.689 40.5664 16.7488 40.5664 13.5968C40.5664 10.4449 42.2609 8.50475 45.7541 8.50472ZM56.4552 8.51195C59.2006 8.51195 60.6292 9.56756 60.6292 11.3517V18.496H57.7429V17.0239H57.6466C57.2545 18.0795 56.1667 18.6889 54.7016 18.689C53.2361 18.689 51.349 17.4773 51.349 15.6931C51.349 13.909 52.8289 12.6602 56.0111 12.1844C57.1804 12.006 57.5503 11.8349 57.5503 11.4037V11.322C57.5503 10.8314 57.0472 10.601 56.0704 10.601C55.0937 10.601 53.924 10.8758 52.3257 11.5375V9.19578C53.2062 8.8464 54.9602 8.51195 56.4552 8.51195ZM99.5558 8.70529H101.702V10.0729H99.5558V16.0054C99.5558 17.0238 99.9036 17.3586 100.977 17.3586H101.694V18.5701C101.384 18.6518 100.873 18.689 100.429 18.689C98.6749 18.689 97.994 18.0647 97.994 16.459V10.0729H96.2401V8.70529H97.994V6.05894H99.5558V8.70529ZM107.208 8.50472C110.05 8.50472 111.204 10.2293 111.204 13.5968V14.0056H104.144C104.277 16.0053 105.41 17.2544 107.578 17.2545C109.746 17.2545 109.68 16.9421 110.871 16.2136L110.878 16.2212V17.849C110.161 18.3397 108.888 18.689 107.563 18.689C104.773 18.689 102.494 17.2618 102.494 13.5968C102.494 9.93191 104.366 8.50472 107.208 8.50472ZM133.428 8.50472C136.27 8.50472 137.424 10.2293 137.424 13.5968V14.0056H130.364C130.497 16.0054 131.63 17.2545 133.798 17.2545C135.966 17.2545 135.9 16.9421 137.091 16.2136L137.098 16.2212V17.849C136.381 18.3397 135.108 18.689 133.783 18.689C130.993 18.6889 128.714 17.2617 128.714 13.5968C128.714 9.93191 130.586 8.50472 133.428 8.50472ZM141.354 8.70529H143.5V10.0729H141.354V16.0054C141.354 17.0238 141.702 17.3586 142.775 17.3586H143.493V18.5701C143.182 18.6518 142.671 18.689 142.227 18.689C140.473 18.689 139.792 18.0647 139.792 16.459V10.0729H138.038V8.70529H139.792V6.05894H141.354V8.70529ZM73.6615 8.50472C75.6671 8.50472 76.777 9.76101 76.777 11.9317V18.4884H73.6615V12.3405C73.6615 11.3221 73.1728 10.8164 72.3587 10.8164C71.545 10.8164 71.1525 11.1288 70.7604 11.7384V18.496H67.6447V12.3478C67.6447 11.3294 67.1563 10.824 66.3422 10.824C65.5285 10.824 65.136 11.1361 64.7439 11.7456V18.5032H61.6281V8.71253L61.6207 8.70529H64.7362V9.85754H64.8328C65.4765 8.99524 66.5864 8.50472 67.7926 8.50472C68.9991 8.50472 69.8575 8.97293 70.3089 9.85754H70.4274C71.2488 8.97293 72.4181 8.50472 73.6615 8.50472ZM91.9775 8.51195C94.0793 8.51195 95.1523 9.64938 95.1526 11.8201V18.496H93.5909V12.4818C93.5909 10.6977 92.9841 9.93921 91.5632 9.93921C90.1424 9.93925 89.4984 10.3482 88.64 11.1955V18.5032H87.0786V8.70529H88.64V9.80548H88.699C89.5799 8.94314 90.6676 8.51195 91.9775 8.51195ZM124.199 8.51195C126.301 8.51195 127.374 9.64938 127.374 11.8201V18.496H125.813V12.4818C125.813 10.6977 125.206 9.93921 123.785 9.93921C122.364 9.93925 121.72 10.3482 120.862 11.1955V18.5032H119.3V8.70529H120.862V9.80548H120.921C121.802 8.94318 122.889 8.51195 124.199 8.51195ZM84.6216 18.496H82.9639V5.37476H84.6216V18.496ZM117.14 8.51195C118.153 8.51195 117.879 8.54933 118.212 8.6088V10.0805C117.865 10.0434 117.509 9.99886 117.199 9.99886C115.992 9.99889 114.978 10.4523 114.349 11.27V18.496H112.788V8.70529H114.349V9.80548H114.408C115.112 8.88367 116.126 8.51195 117.14 8.51195ZM40.2554 7.82054H34.7938V10.4821H39.767V12.9278H34.7938V18.4884H31.4786V5.37476H40.2554V7.82054ZM8.76635 10.207C13.2732 10.2071 16.67 11.7978 16.6701 13.9015C16.6701 16.0054 13.2732 17.5964 8.76635 17.5964C4.25946 17.5964 0.862675 16.0054 0.862675 13.9015C0.862774 11.7978 4.25953 10.207 8.76635 10.207ZM45.7541 10.4969C44.4664 10.4969 43.8596 11.3964 43.8596 13.5744C43.8596 15.7526 44.4664 16.6892 45.7541 16.6892C47.0418 16.6892 47.6485 15.7526 47.6485 13.5744C47.6485 11.3964 47.0418 10.4969 45.7541 10.4969ZM57.5138 13.4555C57.2028 13.5893 56.7735 13.7305 56.3441 13.8495C55.042 14.184 54.509 14.6301 54.509 15.4329C54.509 16.2357 55.0933 16.6671 55.7149 16.6672C56.7545 16.6672 57.5025 15.5648 57.5482 14.3537L57.5503 14.2434V13.4779L57.5138 13.4555ZM107.082 9.91715C105.447 9.91722 104.411 11.1883 104.196 12.7345H109.613C109.532 10.8537 108.718 9.91715 107.082 9.91715ZM133.302 9.91715C131.667 9.91715 130.631 11.1882 130.416 12.7345H135.833C135.752 10.8538 134.938 9.91722 133.302 9.91715ZM12.3557 0C19.1049 2.8143e-05 24.2481 1.98498 24.2481 4.63892C24.2481 7.27052 19.1419 9.25539 12.3557 9.25539C5.56947 9.25539 0.500034 7.27052 0.5 4.63892C0.5 2.00727 5.60643 0 12.3557 0Z" fill="#FDF4F4"/>
</g>
<defs>
<clipPath id="clip0_3912_179">
<rect width="143" height="24" fill="white" transform="translate(0.5)"/>
</clipPath>
</defs>
</svg>
